custom-analysis
version=1
nRows=8
nColumns=42
inDegrees=no

This file contains tibia displacement and acting force.

Units are S.I. units (seconds, meters, Newtons, ...)
Angles are in degrees.

endheader
time	APT	SIT	knee_angle	aACL_R_force	pACL_R_force	aPCL_R_force	pPCL_R_force	aMCL_R_force	mMCL_R_force	pMCL_R_force	aLCL_R_force	mLCL_R_force	pLCL_R_force	aACL_R_length	pACL_R_length	aPCL_R_length	pPCL_R_length	aMCL_R_length	mMCL_R_length	pMCL_R_length	aLCL_R_length	mLCL_R_length	pLCL_R_length	aACL_R_strain	pACL_R_strain	aPCL_R_strain	pPCL_R_strain	aMCL_R_strain	mMCL_R_strain	pMCL_R_strain	aLCL_R_strain	mLCL_R_strain	pLCL_R_strain	femur_lat_meniscii_force_r	femur_lat_meniscii_torque_r	femur_med_meniscii_force_r	femur_med_meniscii_torque_r	femur_lat_tibia_force_r	femur_lat_tibia_torque_r	femur_med_tibia_force_r	femur_med_tibia_torque_r
      0.78602447	      0.00342274	      0.00029675	     15.00005728	     48.84416503	     41.20312199	      0.00000000	      0.00000000	      0.00000000	      3.15700722	      3.17364499	      0.93163353	      0.00000000	      0.00000000	      0.03426518	      0.02756185	      0.02984263	      0.02963188	      0.05772465	      0.06118172	      0.06206049	      0.05606076	      0.05385331	      0.05115647	      0.08073305	      0.06586356	     -0.04028476	     -0.01515295	     -0.00521055	      0.02321697	      0.02194195	      0.00149273	     -0.04377404	     -0.02266272	     82.17724370	     16.03782367	     73.43901056	     17.34453966	      0.00000000	      0.00000000	      0.00000000	      0.00000000
      0.78732878	      0.00342207	      0.00029662	     15.00005728	     48.91083870	     41.27723267	      0.00000000	      0.00000000	      0.00000000	      3.22165326	      3.24038063	      0.99892880	      0.00000000	      0.00000000	      0.03426517	      0.02756194	      0.02984310	      0.02963221	      0.05772393	      0.06118101	      0.06205978	      0.05606213	      0.05385467	      0.05115784	      0.08073271	      0.06586726	     -0.04026985	     -0.01514196	     -0.00522288	      0.02320507	      0.02193025	      0.00151715	     -0.04374977	     -0.02263665	     82.04908118	     16.01229064	     73.45761422	     17.34707167	      0.00000000	      0.00000000	      0.00000000	      0.00000000
      0.79385034	      0.00342081	      0.00029581	     15.00005728	     48.98396181	     41.38318508	      0.00000000	      0.00000000	      0.00000000	      3.05346508	      3.08684894	      0.71533643	      0.00000000	      0.00000000	      0.03426666	      0.02756394	      0.02984432	      0.02963288	      0.05772048	      0.06117757	      0.06205642	      0.05606860	      0.05386121	      0.05116437	      0.08077971	      0.06594460	     -0.04023042	     -0.01511989	     -0.00528243	      0.02314751	      0.02187485	      0.00163279	     -0.04363365	     -0.02251189	     81.63874230	     15.93451921	     73.70762567	     17.40919192	      0.00000000	      0.00000000	      0.00000000	      0.00000000
      0.79490726	      0.00342084	      0.00029588	     15.00005728	     49.00166352	     41.40408165	      0.00000000	      0.00000000	      0.00000000	      3.06385470	      3.09929756	      0.71916267	      0.00000000	      0.00000000	      0.03426683	      0.02756417	      0.02984429	      0.02963276	      0.05771977	      0.06117686	      0.06205573	      0.05606944	      0.05386207	      0.05116523	      0.08078498	      0.06595354	     -0.04023155	     -0.01512381	     -0.00529465	      0.02313559	      0.02186353	      0.00164777	     -0.04361842	     -0.02249547	     81.58330174	     15.92597533	     73.77560678	     17.42433892	      0.00000000	      0.00000000	      0.00000000	      0.00000000
      0.79516288	      0.00342086	      0.00029591	     15.00005728	     49.00055935	     41.40342730	      0.00000000	      0.00000000	      0.00000000	      3.05849828	      3.09442955	      0.71136745	      0.00000000	      0.00000000	      0.03426686	      0.02756422	      0.02984427	      0.02963272	      0.05771959	      0.06117668	      0.06205556	      0.05606963	      0.05386227	      0.05116543	      0.08078610	      0.06595549	     -0.04023204	     -0.01512499	     -0.00529769	      0.02313261	      0.02186072	      0.00165126	     -0.04361486	     -0.02249163	     81.57340529	     15.92452256	     73.79720806	     17.42928310	      0.00000000	      0.00000000	      0.00000000	      0.00000000
      0.79644096	      0.00342097	      0.00029613	     15.00005728	     48.95637567	     41.35862096	      0.00000000	      0.00000000	      0.00000000	      2.98181761	      3.02007288	      0.61989250	      0.00000000	      0.00000000	      0.03426696	      0.02756438	      0.02984413	      0.02963248	      0.05771864	      0.06117572	      0.06205463	      0.05607054	      0.05386320	      0.05116636	      0.08078906	      0.06596173	     -0.04023648	     -0.01513290	     -0.00531411	      0.02311655	      0.02184549	      0.00166738	     -0.04359835	     -0.02247380	     81.54931534	     15.92150047	     73.93039035	     17.45926133	      0.00000000	      0.00000000	      0.00000000	      0.00000000
      0.80006436	      0.00342137	      0.00029733	     15.00005728	     48.91266522	     41.31061401	      0.00000000	      0.00000000	      0.00000000	      2.97124502	      3.01261720	      0.62820566	      0.00000000	      0.00000000	      0.03426659	      0.02756416	      0.02984346	      0.02963152	      0.05771553	      0.06117257	      0.06205160	      0.05607268	      0.05386543	      0.05116861	      0.08077740	      0.06595293	     -0.04025813	     -0.01516496	     -0.00536772	      0.02306389	      0.02179558	      0.00170567	     -0.04355881	     -0.02243087	     81.46086702	     15.90844822	     74.35753343	     17.55607705	      0.00000000	      0.00000000	      0.00000000	      0.00000000
      0.80168901	      0.00342158	      0.00029781	     15.00005728	     48.89775541	     41.29614195	      0.00000000	      0.00000000	      0.00000000	      2.95198067	      2.99338645	      0.61139995	      0.00000000	      0.00000000	      0.03426645	      0.02756407	      0.02984325	      0.02963118	      0.05771423	      0.06117125	      0.06205034	      0.05607373	      0.05386652	      0.05116971	      0.08077292	      0.06594944	     -0.04026480	     -0.01517609	     -0.00539006	      0.02304188	      0.02177483	      0.00172448	     -0.04353940	     -0.02240977	     81.42560552	     15.90144300	     74.54323509	     17.59784733	      0.00000000	      0.00000000	      0.00000000	      0.00000000
